<?xml version="1.0" standalone="no"?>
<!DOCTYPE svg PUBLIC "-//W3C//DTD SVG 1.1//EN" "http://www.w3.org/Graphics/SVG/1.1/DTD/svg11.dtd" >
<svg xmlns="http://www.w3.org/2000/svg">
<metadata>Generated by IcoMoon</metadata>
<defs>
<font id="icomoon" horiz-adv-x="1024">
<font-face units-per-em="1024" ascent="960" descent="-64" />
<missing-glyph horiz-adv-x="1024" />
<glyph unicode="&#x20;" horiz-adv-x="512" d="" />
<glyph unicode="&#xe600;" glyph-name="view-link" d="M784.544 375.648c-18.688 7.008-38.304 12.608-58.592 16.032 19.552-14.848 32.352-39.616 32.352-67.744 0-45.312-33.28-82.144-74.4-82.144s-74.432 36.832-74.432 82.144c0 28.128 12.768 52.8 32.288 67.648-20.736-3.616-40.48-9.664-58.976-17.024-6.304-15.456-9.984-32.576-9.984-50.624 0-67.744 49.76-122.656 111.136-122.656 61.312 0 111.136 54.912 111.136 122.656-0.064 18.464-3.904 36-10.528 51.712zM777.632 636.8c31.36 64.48 17.888 146.112-40.416 204.416l-64.288 64.256c-70.144 70.144-177.344 72.992-243.872 6.432l-205.472-205.44c-66.528-66.56-64-173.408 5.664-243.68 0.064-0.032 0.128-0.096 0.192-0.128 0.096-0.192 0.192-0.256 0.32-0.384l0.416-0.448 107.424-107.392c-1.824-14.304-3.072-28.736-3.072-43.584 0-15.072 1.312-29.792 3.2-44.32l-58.688-58.688c-22.176-22.144-59.872-12-81.984 10.144l-64.256 64.192c-20.864 20.864-29.664 54.432-6.112 78.016l61.056 61.056c-30.464 30.592-50.976 66.56-61.984 104.256l-82.176-82.176c-66.752-66.752-64.032-174.016 6.112-244.192l64.224-64.224c71.264-71.2 182.624-75.776 248.192-10.080l17.312 17.248c58.752-102.944 169.344-172.544 296.384-172.544 188.512 0 341.344 152.768 341.344 341.312 0 153.152-100.704 282.624-239.52 325.952zM379.136 479.104l-65.856 65.856c-0.256 0.256-0.544 0.64-0.864 0.992v-0.032c-20.544 20.928-29.056 54.048-5.696 77.44l205.44 205.44c24.48 24.48 57.44 13.792 77.728-6.464l64.256-64.224c22.112-22.112 32.384-59.68 10.432-81.632l-26.368-26.432c-41.984-4.608-81.568-16.992-117.536-35.424l-69.248 69.216c-0.192 0.192-0.416 0.352-0.576 0.512l-83.104-83.104c0.192-0.224 0.384-0.352 0.576-0.544l57.76-57.76c-17.984-19.36-33.824-40.704-46.944-63.84zM683.872 141.28c-144.928 0-276.16 153.184-276.16 153.184s93.344 182.656 276.16 182.656 276.128-182.656 276.128-182.656-131.2-153.184-276.128-153.184zM537.12 352.576c-35.072-20.096-62.304-42.816-77.344-58.080 20.384-20.544 63.072-59.264 117.28-85.344-26.144 29.696-42.336 70.144-42.336 114.816 0 9.824 0.928 19.296 2.4 28.608zM833.056 323.936c0-45.792-16.96-87.168-44.224-116.992 58.624 26.112 106.304 66.368 127.2 87.52-15.68 15.808-46.56 39.904-85.696 60.512 1.728-10.112 2.72-20.416 2.72-31.040z" />
<glyph unicode="&#xe601;" glyph-name="collection-stack" d="M523.616 857.12l-460.448-230.24 460.48-230.272 460.512 230.272-460.544 230.24zM216 626.88l307.616 153.824 307.616-153.824-307.616-153.856-307.616 153.856zM523.616 51.296l-460.448 230.24 92.224 46.080 368.224-184.128 368.256 184.128 92.256-46.080zM523.616 223.968l-460.448 230.24 92.224 46.112 368.224-184.128 368.256 184.128 92.256-46.112z" />
<glyph unicode="&#xe602;" glyph-name="add-record" d="M587.744 720.352v97.568h-482.784c-8.064 0-14.656-6.88-14.656-15.36v-582.912c0-8.416 6.592-15.328 14.656-15.328h217.536c-21.952 47.072-34.528 99.424-34.56 154.944 0 179.744 129.216 329.184 299.808 361.088zM655.616 670.784c-172.032 0-311.552-139.552-311.552-311.52 0-172.064 139.52-311.552 311.552-311.552 172.064 0 311.552 139.488 311.552 311.552 0.032 171.968-139.552 311.488-311.552 311.52zM849.248 317.664c0-7.712-6.304-14.080-14.112-14.080h-126.88v-128.672c0-7.776-6.304-14.080-14.112-14.080h-84.64c-7.744 0-14.048 6.304-14.048 14.080v128.672h-126.848c-7.776 0-14.112 6.368-14.112 14.080v84.672c0 7.744 6.336 14.112 14.112 14.112h126.848v126.848c0 7.808 6.304 14.144 14.048 14.144h84.64c7.808 0 14.112-6.336 14.112-14.144v-126.848h126.88c7.808 0 14.112-6.368 14.112-14.112v-84.672z" />
<glyph unicode="&#xe603;" glyph-name="export-collect" d="M775.328 592.672l147.808 73.824-461.632 230.816-461.504-230.816 420.896-210.4c-12.864-20.256-23.328-41.984-31.424-64.96l-297.024 148.576-92.448-46.304 372.384-186.144c-0.448-7.040-1.056-14.048-1.056-21.376 0-21.12 2.112-41.76 6.080-61.856l-284.96 142.496-92.448-46.144 425.984-212.864c57.28-84.64 154.144-140.256 264.064-140.256 175.936 0 318.624 142.752 318.624 318.688 0 146.272-98.848 269.376-233.344 306.72zM471.136 517.216l-9.632-4.832-308.288 154.112 308.288 154.24 308.384-154.24-133.632-66.784c-63.456-10.784-120.352-40.192-165.12-82.496zM891.936 276.256l-184.256-214.944c-6.144-7.2-16.256-7.2-22.432-0.032l-185.312 215.008c-6.176 7.232-3.488 13.056 5.984 13.056h121.696v189.44c0 9.472 7.712 17.216 17.184 17.216h103.328c9.504 0 17.216-7.744 17.216-17.216v-189.44h120.576c9.472 0 12.16-5.888 6.016-13.088z" />
<glyph unicode="&#xe604;" glyph-name="manage-link" d="M253.888 454.976c-66.080 66.624-68.48 168-5.376 231.168l194.88 194.848c63.136 63.136 164.736 60.448 231.328-6.080l60.96-60.96c31.84-31.84 49.216-71.136 53.088-110.4-39.104 14.976-81.312 23.584-125.568 24.192-1.984 2.592-4.064 5.12-6.336 7.392l-60.896 60.864c-19.264 19.232-50.56 29.344-73.792 6.112l-194.848-194.848c-22.176-22.176-14.080-53.6 5.376-73.44 0.32-0.32 0.608-0.672 0.832-0.928l0.64-0.64c-19.296-36.608-32.32-76.864-38.24-119.456l-41.216 41.216-0.384 0.448c-0.096 0.128-0.192 0.192-0.32 0.384-0.032 0.032-0.064 0.096-0.128 0.128zM317.216 229.248l-16.096-16.064c-21.024-20.992-56.768-11.36-77.76 9.664l-60.96 60.864c-19.808 19.776-28.128 51.584-5.792 73.952l57.92 57.984c-28.896 28.992-48.352 63.136-58.752 98.88l-77.952-77.952c-63.328-63.328-60.736-165.056 5.824-231.616l60.928-60.896c65.856-65.728 167.488-71.104 230.208-13.792-24.128 29.44-43.488 62.88-57.568 98.976zM967.2 359.232c0-172.064-139.52-311.552-311.584-311.552-172.032 0-311.552 139.488-311.552 311.552 0 172 139.52 311.552 311.552 311.552 172.032-0.032 311.584-139.552 311.584-311.552zM469.728 475.648l30.592-47.488c2.528-3.904 8.352-6.88 12.96-6.656l8.64 0.352c4.672 0.192 11.168-2.272 14.4-5.504l50.080-49.408 32.032 30.016-51.072 50.4c-3.264 3.2-5.792 9.664-5.6 14.272l0.384 8.672c0.224 4.672-2.752 10.432-6.656 12.928l-47.424 30.784c-3.84 2.528-9.728 1.92-12.96-1.344l-24-24c-3.232-3.296-3.872-9.184-1.376-13.024zM839.392 217.952l-107.296 98.208-58.912-61.792 96.416-106.304c3.072-3.36 8.288-3.52 11.552-0.256l58.528 58.528c3.264 3.264 3.168 8.48-0.288 11.616zM861.088 446.752l-80.672-40.64-46.464 74.496 83.168 44.416c-32.352 22.976-66.944 20.512-98.336 2.784-41.248-23.232-59.424-71.232-45.312-114.304l-192.448-192.416c-6.496-6.56-6.496-17.184 0-23.68l35.424-35.424c6.528-6.496 17.184-6.496 23.648 0l23.616 23.648 167.744 167.744c25.664-9.152 55.136-7.168 81.216 7.488 31.456 17.664 51.328 46.304 48.416 85.888z" />
<glyph unicode="&#xe605;" glyph-name="manage-collect" d="M775.328 592.672l147.808 73.824-461.632 230.816-461.504-230.816 420.896-210.4c-12.864-20.256-23.328-41.984-31.424-64.96l-297.024 148.576-92.448-46.304 372.384-186.144c-0.448-7.040-1.056-14.048-1.056-21.376 0-21.12 2.112-41.76 6.080-61.856l-284.96 142.496-92.448-46.144 425.984-212.864c57.28-84.64 154.144-140.256 264.064-140.256 175.936 0 318.624 142.752 318.624 318.688 0 146.272-98.848 269.376-233.344 306.72zM471.136 517.216l-9.632-4.832-308.288 154.112 308.288 154.24 308.384-154.24-133.632-66.784c-63.456-10.784-120.352-40.192-165.12-82.496zM503.104 424.64l24 24c3.264 3.264 9.12 3.872 12.96 1.344l47.424-30.784c3.904-2.496 6.88-8.288 6.656-12.928l-0.384-8.672c-0.192-4.64 2.336-11.104 5.6-14.272l51.072-50.4-32.032-30.016-50.080 49.408c-3.264 3.232-9.76 5.696-14.4 5.504l-8.64-0.352c-4.64-0.224-10.432 2.752-12.96 6.656l-30.592 47.488c-2.496 3.872-1.856 9.76 1.376 13.024zM871.712 142.336l-58.528-58.528c-3.296-3.296-8.512-3.136-11.552 0.256l-96.416 106.304 58.912 61.792 107.296-98.208c3.424-3.136 3.52-8.352 0.288-11.616zM844.672 296.864c-26.080-14.656-55.552-16.672-81.216-7.488l-191.36-191.392c-6.464-6.496-17.12-6.496-23.648 0l-35.424 35.424c-6.496 6.496-6.496 17.12 0 23.68l192.448 192.416c-14.112 43.104 4.064 91.104 45.312 114.304 31.392 17.728 65.984 20.192 98.336-2.784l-83.168-44.416 46.464-74.496 80.672 40.64c2.912-39.584-16.96-68.224-48.416-85.888z" />
<glyph unicode="&#xe606;" glyph-name="rem-link" d="M967.2 359.232c0-172.064-139.52-311.552-311.584-311.552-172.032 0-311.552 139.488-311.552 311.552 0 172 139.52 311.552 311.552 311.552 172.032-0.032 311.584-139.552 311.584-311.552zM842.528 400.32c0 7.232-5.888 13.088-13.088 13.088h-344.608c-7.2 0-13.056-5.92-13.056-13.088v-78.368c0-7.264 5.856-13.056 13.056-13.056h344.608c7.264 0 13.088 5.856 13.088 13.056v78.368zM254.016 454.816c0.128-0.192 0.224-0.256 0.32-0.384l0.384-0.448 41.216-41.184c5.92 42.592 18.944 82.848 38.208 119.424l-0.64 0.64c-0.224 0.288-0.512 0.64-0.832 0.928-19.456 19.84-27.552 51.264-5.376 73.44l194.848 194.848c23.232 23.232 54.528 13.12 73.792-6.112l60.896-60.864c2.272-2.272 4.352-4.8 6.336-7.392 44.256-0.608 86.464-9.216 125.568-24.192-3.872 39.264-21.248 78.56-53.088 110.4l-60.96 60.96c-66.56 66.528-168.192 69.216-231.328 6.080l-194.88-194.848c-63.104-63.168-60.704-164.544 5.376-231.168 0.096 0 0.128-0.064 0.16-0.128zM317.216 229.248l-16.096-16.064c-21.024-20.992-56.768-11.36-77.76 9.664l-60.96 60.864c-19.808 19.776-28.128 51.584-5.792 73.952l57.92 57.984c-28.896 28.992-48.352 63.136-58.752 98.88l-77.952-77.952c-63.328-63.328-60.736-165.056 5.824-231.616l60.928-60.896c65.856-65.728 167.488-71.104 230.208-13.792-24.128 29.44-43.488 62.88-57.568 98.976z" />
<glyph unicode="&#xe607;" glyph-name="rem-record" d="M322.496 204.32h-217.536c-8.064 0-14.656 6.912-14.656 15.328v582.912c0 8.48 6.592 15.36 14.656 15.36h482.784v-97.568c-170.592-31.904-299.808-181.344-299.808-361.12 0.032-55.488 12.608-107.84 34.56-154.912zM967.2 359.232c0-172.064-139.52-311.552-311.584-311.552-172.032 0-311.552 139.488-311.552 311.552 0 172 139.52 311.552 311.552 311.552 172.032-0.032 311.584-139.552 311.584-311.552zM842.528 400.32c0 7.232-5.888 13.088-13.088 13.088h-344.608c-7.2 0-13.056-5.92-13.056-13.088v-78.368c0-7.264 5.856-13.056 13.056-13.056h344.608c7.264 0 13.088 5.856 13.088 13.056v78.368z" />
<glyph unicode="&#xe608;" glyph-name="delete-collect" d="M775.328 592.672l147.808 73.824-461.632 230.816-461.504-230.816 420.896-210.4c-12.864-20.256-23.328-41.984-31.424-64.96l-297.024 148.544-92.448-46.272 372.384-186.144c-0.448-7.040-1.056-14.080-1.056-21.376 0-21.12 2.112-41.76 6.080-61.856l-284.96 142.496-92.448-46.144 425.984-212.864c57.28-84.64 154.144-140.256 264.064-140.256 175.936 0 318.624 142.752 318.624 318.688 0 146.272-98.848 269.376-233.344 306.72zM471.136 517.216l-9.632-4.832-308.288 154.112 308.288 154.24 308.384-154.24-133.632-66.784c-63.456-10.784-120.352-40.192-165.12-82.496zM895.2 247.488c0-7.456-6.016-13.504-13.504-13.504h-356.192c-7.424 0-13.504 6.016-13.504 13.504v80.992c0 7.424 6.048 13.504 13.504 13.504h356.192c7.456 0 13.504-6.016 13.504-13.504v-80.992z" />
<glyph unicode="&#xe609;" glyph-name="add-all-collect" d="M114.176 560.448l-94.784-47.392 181.568-90.816c11.552 26.464 27.456 50.464 46.56 71.488l-133.344 66.72zM181.12 349.472l-66.944 33.472-94.784-47.36 168.096-84.032c-5.408 20.96-8.576 42.816-8.576 65.504 0 10.976 0.928 21.792 2.208 32.416zM497.152 928.288l476.096-238.048-92-45.984c-30.56 12.736-64.096 19.872-99.328 19.872-7.328 0-14.4-0.736-21.568-1.344l54.912 27.456-318.080 159.040-318.080-159.040 218.080-109.056c-32.992-5.28-63.872-16.736-91.488-33.28l-284.64 142.336 476.096 238.048zM777.152 620.32c-67.744 0-128.576-28.672-171.776-74.24 47.936-29.696 85.28-73.248 107.68-123.968h24.864v88.288c0 5.408 4.416 9.824 9.856 9.824h58.784c5.472 0 9.856-4.416 9.856-9.824v-88.288h88.288c5.376 0 9.824-4.416 9.824-9.792v-58.848c0-5.408-4.448-9.856-9.824-9.856h-88.288v-89.504c0-5.408-4.384-9.856-9.856-9.856h-58.784c-5.44 0-9.856 4.448-9.856 9.856l-1.216 56.832c0-53.408-15.328-104.992-44.096-149.504 26.304-10.080 54.688-16 84.544-16 131.104 0 237.408 106.336 237.408 237.408 0 131.136-106.304 237.472-237.408 237.472zM114.176 560.448l-94.784-47.392 181.568-90.816c11.552 26.464 27.456 50.464 46.56 71.488l-133.344 66.72zM181.12 349.472l-66.944 33.472-94.784-47.36 168.096-84.032c-5.408 20.96-8.576 42.816-8.576 65.504 0 10.976 0.928 21.792 2.208 32.416zM698.592 311.008c0-47.712-14.048-93.856-40.672-133.184-33.024-48.896-82.304-83.136-138.048-97.44-17.984-4.416-36.768-6.816-56.096-6.816-131.104 0-237.408 106.272-237.408 237.376 0 131.168 106.304 237.44 237.408 237.44 20.256 0 39.904-2.784 58.656-7.584 2.624-0.704 5.248-1.44 7.808-2.24 5.088-1.504 10.016-3.296 15.008-5.152 5.696-2.208 11.392-4.32 16.96-6.976 0.96-0.448 1.92-0.96 2.848-1.376 81.184-39.84 133.536-123.584 133.536-214.048zM601.088 340.448c0 5.376-4.448 9.824-9.888 9.824h-88.224v88.192c0 5.44-4.384 9.888-9.824 9.888h-58.88c-5.44 0-9.824-4.448-9.824-9.888v-88.192h-88.256c-5.408 0-9.824-4.448-9.824-9.824v-58.88c0-5.408 4.416-9.856 9.824-9.856h88.256v-89.504c0-5.44 4.384-9.856 9.824-9.856h58.88c5.44 0 9.824 4.416 9.824 9.856v89.504h88.224c5.44 0 9.888 4.448 9.888 9.856v58.88z" />
<glyph unicode="&#xe60a;" glyph-name="new-link" d="M782.048 534.816l-79.264-79.2c-10.304 35.712-29.632 70.016-57.888 99.68l58.368 58.368c20.768 20.832 11.072 56.48-9.92 77.44l-60.928 60.896c-19.232 19.232-50.528 29.344-73.76 6.112l-194.848-194.848c-22.176-22.208-14.080-53.6 5.376-73.472v0.032c0.32-0.32 0.608-0.672 0.832-0.928l104.224-104.224-78.848-78.784-104.544 104.544c-0.096 0.128-0.192 0.192-0.32 0.384-0.064 0.064-0.096 0.128-0.16 0.16-66.080 66.624-68.48 168-5.376 231.136l194.88 194.848c63.136 63.136 164.736 60.448 231.328-6.080l60.96-60.96c68.64-68.64 73.056-171.936 9.888-235.104zM501.088 620.672c-0.16 0.16-0.384 0.32-0.544 0.48l-78.816-78.816c0.192-0.224 0.352-0.32 0.544-0.512l100.32-100.288c20.96-21.056 30.752-56.608 9.888-77.472l-194.848-194.88c-21.024-20.992-56.768-11.36-77.76 9.664l-60.96 60.864c-19.808 19.776-28.128 51.616-5.792 73.952l57.92 57.952c-28.896 28.992-48.352 63.136-58.752 98.88l-77.952-77.952c-63.328-63.328-60.736-165.056 5.824-231.616l60.928-60.896c67.584-67.488 173.216-71.872 235.392-9.632l194.88 194.848c63.136 63.136 58.816 166.4-9.92 235.168l-100.352 100.256z" />
<glyph unicode="&#xe60b;" glyph-name="add-link" d="M777.632 636.8c31.36 64.48 17.888 146.112-40.416 204.416l-64.288 64.256c-70.144 70.144-177.312 72.992-243.872 6.432l-205.472-205.44c-66.528-66.56-64-173.408 5.664-243.68 0.064-0.032 0.128-0.096 0.192-0.128 0.096-0.192 0.192-0.256 0.32-0.384l0.416-0.448 107.424-107.392c-1.824-14.304-3.072-28.768-3.072-43.584 0-15.072 1.312-29.792 3.2-44.32l-58.688-58.688c-22.176-22.144-59.872-12-81.984 10.176l-64.256 64.192c-20.864 20.864-29.664 54.432-6.112 77.984l61.056 61.056c-30.464 30.592-50.976 66.56-61.984 104.256l-82.176-82.176c-66.752-66.752-64.032-174.016 6.112-244.192l64.224-64.224c71.264-71.2 182.624-75.776 248.192-10.112l17.312 17.28c58.752-102.976 169.344-172.544 296.384-172.544 188.512 0 341.344 152.768 341.344 341.312 0 153.152-100.736 282.624-239.52 325.952zM450.848 684.352l-83.104-83.104c0.192-0.224 0.384-0.352 0.576-0.544l57.76-57.76c-17.984-19.36-33.824-40.704-46.944-63.84l-65.856 65.856c-0.256 0.256-0.544 0.64-0.864 0.992v-0.032c-20.544 20.928-29.056 54.048-5.696 77.44l205.44 205.44c24.448 24.48 57.44 13.792 77.696-6.464l64.256-64.224c22.144-22.112 32.416-59.68 10.464-81.632l-26.4-26.432c-41.984-4.608-81.568-16.992-117.536-35.424l-69.216 69.216c-0.192 0.192-0.416 0.352-0.576 0.512zM873.248 277.664c0-7.744-6.304-14.080-14.112-14.080h-126.88v-128.672c0-7.776-6.336-14.112-14.112-14.112h-84.64c-7.744 0-14.080 6.336-14.080 14.112v128.672h-126.848c-7.776 0-14.112 6.336-14.112 14.080v84.64c0 7.776 6.336 14.112 14.112 14.112h126.848v126.88c0 7.808 6.336 14.144 14.080 14.144h84.64c7.776 0 14.112-6.336 14.112-14.144v-126.88h126.88c7.808 0 14.112-6.336 14.112-14.112v-84.64z" />
<glyph unicode="&#xe60c;" glyph-name="rem-collect" d="M775.328 592.672l147.776 73.824-461.6 230.816-461.504-230.816 420.896-210.4c-12.864-20.256-23.328-41.984-31.424-64.96l-297.024 148.512-92.448-46.24 372.384-186.176c-0.448-7.008-1.056-14.080-1.056-21.344 0-21.152 2.112-41.76 6.080-61.856l-284.96 142.496-92.448-46.144 425.984-212.896c57.28-84.608 154.144-140.224 264.064-140.224 175.936 0 318.656 142.752 318.656 318.688 0 146.272-98.912 269.376-233.376 306.72zM471.136 517.216l-9.632-4.832-308.288 154.112 308.288 154.24 308.384-154.24-133.632-66.784c-63.456-10.784-120.352-40.192-165.12-82.496zM895.2 247.488c0-7.456-6.016-13.504-13.504-13.504h-356.192c-7.424 0-13.504 6.016-13.504 13.504v80.992c0 7.456 6.048 13.504 13.504 13.504h356.192c7.456 0 13.504-6.016 13.504-13.504v-80.992z" />
<glyph unicode="&#xe60d;" glyph-name="add-collect" d="M775.328 592.672l147.776 73.824-461.6 230.816-461.504-230.816 420.896-210.4c-12.864-20.256-23.328-41.984-31.424-64.96l-297.024 148.512-92.448-46.24 372.384-186.176c-0.448-7.008-1.056-14.080-1.056-21.344 0-21.152 2.112-41.76 6.080-61.856l-284.96 142.496-92.448-46.144 425.984-212.896c57.28-84.608 154.144-140.224 264.064-140.224 175.936 0 318.656 142.752 318.656 318.688 0 146.272-98.912 269.376-233.376 306.72zM471.136 517.216l-9.632-4.832-308.288 154.112 308.288 154.24 308.384-154.24-133.632-66.784c-63.456-10.784-120.352-40.192-165.12-82.496zM894.496 247.072c0-7.488-6.080-13.568-13.536-13.568h-121.664v-123.36c0-7.36-6.016-13.408-13.472-13.408h-81.12c-7.424 0-13.632 6.016-13.632 13.408v123.36h-121.6c-7.456 0-13.504 6.048-13.504 13.568v81.024c0 7.424 6.048 13.6 13.504 13.6h121.6v121.536c0 7.52 6.176 13.536 13.632 13.536h81.12c7.424 0 13.472-6.048 13.472-13.536v-121.536h121.664c7.424 0 13.536-6.144 13.536-13.6v-81.024z" />
<glyph unicode="&#xe60e;" glyph-name="collection" d="M513.12 960c-282.176 0-510.912-228.736-510.912-510.944 0-282.144 228.736-510.88 510.912-510.88 282.144 0 510.88 228.736 510.88 510.88 0 282.176-228.736 510.944-510.88 510.944zM513.088 781.6l380-190.016-380-189.984-380 189.984 380 190.016zM513.088 116.608l-380 189.984 76.128 38.016 303.872-151.936 303.872 151.936 76.128-38.016-380-189.984zM513.088 259.104l-380 189.984 76.128 38.016 303.872-151.936 303.872 151.936 76.128-38.016-380-189.984zM766.976 591.584l-253.888 126.976-253.856-126.976 253.856-126.944z" />
<glyph unicode="&#xe60f;" glyph-name="concept" d="M513.12 960c-282.176 0-510.912-228.736-510.912-510.944 0-282.144 228.736-510.88 510.912-510.88 282.144 0 510.88 228.736 510.88 510.88 0 282.176-228.736 510.944-510.88 510.944zM790.752 597.152l-324.096-562.784c-5.216-8.128-13.632-11.744-25.216-11.744-1.6 0-4.416 0.512-8.384 1.184-6.784 1.632-11.904 4.832-15.296 9.344s-4.32 9.504-2.688 14.688l118.24 393.6-243.648-49.184c-1.632-0.352-4-0.512-7.232-0.512-7.2 0-13.408 1.824-18.592 5.344-7.168 4.896-9.824 11.232-7.776 19.008l120.576 401.856c1.6 4.544 4.8 7.488 9.664 10.432 4.768 2.944 10.4 3.616 16.8 3.616h196.8c7.584 0 14.016-1.248 19.2-5.312 5.216-4.064 7.808-8.512 7.808-14.016 0-2.56-0.992-5.312-3.008-8.576l-102.624-225.408 237.632 47.776c3.168 0.64 5.568-0.608 7.168-0.608 7.616 0 14.432-8.928 20.384-8.928h0.096c7.136-10.24 8.576-12.032 4.224-19.808z" />
<glyph unicode="&#xe610;" glyph-name="event" d="M641.472 400.16c-11.84 0-21.76-1.6-29.792-3.424l-6.912-2.72 5.344 53.984h96.416v51.2h-149.888l-10.848-144.064 24.288-10.112c5.248 1.568 12.16 3.040 20.576 4.448 8.384 1.408 16.16 2.080 23.168 2.080 38.528 0 57.984-14.528 57.984-43.584 0-30.496-18.304-45.76-55.52-45.76-12.352 0-24.768 1.728-38.592 5.248-13.824 3.488-24.736 8-34.976 13.504v-52.672c20.48-10.368 44.32-15.584 76.416-15.584 36.96 0 64.032 8.672 83.904 26.048 19.84 17.344 29.792 41.984 29.792 74.208 0 27.2-8.256 48.48-24.768 64.128s-38.688 23.136-66.56 23.136zM266.24 683.52h512v-112.64h-512v112.64zM378.88 270.656l38.592 34.912c24.704 22.624 43.488 40.032 53.28 52.256s17.024 24.16 21.696 35.808c4.672 11.648 7.008 24.096 7.008 37.376 0 15.264-3.808 28.8-11.456 40.64-7.616 11.84-18.336 21.056-32.128 27.616-13.824 6.592-29.728 9.856-47.744 9.856-13.664 0-26.016-1.344-37.088-4.032s-21.248-6.528-30.592-11.552c-9.344-4.992-21.12-13.568-35.296-25.632l33.152-39.264c11.424 9.472 22.4 16.768 32.928 21.888s21.376 7.68 32.544 7.68c10.656 0 19.168-2.816 25.568-8.48 6.368-5.664 9.6-14.272 9.6-25.824 0-7.776-1.376-15.232-4.256-22.496-2.88-7.232-7.488-15.104-14.048-23.584s-20.288-23.68-41.696-45.664l-71.776-73.184v-36.288h204.8v40.96h-133.12v6.976zM513.12 956.096c-282.176 0-510.912-228.736-510.912-510.944 0-282.144 228.736-510.848 510.912-510.848 282.144 0 510.88 228.736 510.88 510.848 0 282.176-228.736 510.944-510.88 510.944zM819.2 205.408c0-41.344-33.536-74.848-74.88-74.848h-454.4c-41.344 0-74.88 33.504-74.88 74.848v454.464c0 41.344 33.536 74.848 74.88 74.848h454.368c41.376 0 74.88-33.504 74.88-74.848v-454.464z" />
<glyph unicode="&#xe611;" glyph-name="facebook" d="M842.24 888.32h-660.48c-60.512 0-110.080-49.568-110.080-110.080v-660.48c0-60.576 49.568-110.016 110.016-110.016h334.016v315.744h-105.472v137.536h105.472v68.928c0 106.24 78.432 189.44 178.592 189.44h97.184v-155.328h-86.976c-22.72 0-29.376-13.056-29.376-31.072v-71.872h116.384v-137.568h-116.384v-315.808h167.072c60.576 0 110.016 49.504 110.016 110.016v660.544c0.096 60.512-49.408 110.080-109.984 110.080z" />
<glyph unicode="&#xe612;" glyph-name="organisation" d="M513.12 960c-282.176 0-510.912-228.736-510.912-510.944 0-282.144 228.736-510.88 510.912-510.88 282.144 0 510.88 228.736 510.88 510.88 0 282.176-228.736 510.944-510.88 510.944zM203.072 284.16h-105.632c-2.464 0-5.28 6.688-5.28 9.12v41.536c0 17.504 8.512 24.672 21.824 32.224 10.688 6.112 70.336 47.36 121.536 61.888v62.592c-20.48 7.552-20.48 19.232-20.48 37.088v42.592c0 41.088 21.856 74.752 71.712 74.752s71.648-33.664 71.648-74.752v-42.592c0-17.696 0-29.376-30.72-36.896v-62.784c20.48-4.224 31.264-10.88 46.176-18.176-32.224-16.288-74.688-40.032-129.152-71.040l-2.848-3.68c-24.256-13.792-34.464-31.36-38.816-51.84zM788.48 200.576c0-3.456-5.952-8.576-9.44-8.576h-536.416c-3.552 0-7.104 5.12-7.104 8.576v59.712c0 25.152 6.528 35.456 25.664 46.368 15.36 8.704 117.696 68.064 168.896 88.864v89.984c-20.48 10.848-30.72 27.648-30.72 53.312v71.264c0 59.104 35.872 107.456 107.52 107.456 71.68 0 107.52-48.352 107.52-107.456v-71.264c0-25.408-10.24-42.176-20.48-53.088v-90.24c51.2-20.8 153.568-80.16 168.896-88.864 19.136-10.912 25.664-21.216 25.664-46.368v-59.712zM924.256 284.16h-105.664c-4.352 20.48-15.040 38.016-39.296 51.808l-8.576 5.856c-24.064 13.952-80.608 45.984-126.304 68.736 14.72 7.2 31.424 14.144 41.664 18.336v62.592c-20.48 7.552-20.48 19.232-20.48 37.088v42.592c0 41.088 21.856 74.752 71.648 74.752 49.856 0 71.712-33.664 71.712-74.752v-42.592c0-17.696 0-29.376-20.48-36.896v-62.784c40.96-14.528 110.848-55.744 121.536-61.888 13.312-7.552 21.824-14.72 21.824-32.224v-41.536c0-2.432-5.152-9.12-7.584-9.12z" />
<glyph unicode="&#xe613;" glyph-name="pacman" d="M964.736 781.184c-93.888 109.44-233.216 178.816-388.736 178.816-282.784 0-512-229.216-512-512s229.216-512 512-512c155.52 0 294.816 69.344 388.736 178.816l-324.736 333.184 324.736 333.184zM704 839.392c39.424 0 71.392-31.968 71.392-71.392s-31.968-71.392-71.392-71.392-71.392 31.968-71.392 71.392c0 39.424 31.968 71.392 71.392 71.392z" />
<glyph unicode="&#xe614;" glyph-name="person" d="M513.12 960c-282.176 0-510.912-228.736-510.912-510.944 0-282.144 228.736-510.88 510.912-510.88 282.144 0 510.88 228.736 510.88 510.88 0 282.176-228.736 510.944-510.88 510.944zM513.664-40.48c-166.080 0-313.056 81.536-403.36 206.656 39.232 29.888 109.12 53.184 178.688 83.648l108.448 51.872 0.832 88.576c0 0-32.864 26.656-43.072 110.016-20.576-6.24-42.144 32.32-43.328 52.64-1.12 19.52 2.88 73.856 27.936 68.384-5.088 40.864-8.832 77.664-7.040 97.12 6.56 71.2 73.088 146.272 175.392 146.272s168.928-75.104 175.456-146.272c1.824-19.456-1.92-56.256-7.008-97.12 25.056 5.472 29.024-48.864 27.904-68.384-1.152-20.32-22.752-58.88-43.296-52.64l-43.040-110.016 0.8-88.576c0 0 20.768-13.376 108.512-51.872 73.792-32.384 148.128-56.672 185.568-89.344-90.624-121.952-235.744-200.96-399.36-200.96z" />
<glyph unicode="&#xe615;" glyph-name="place" d="M513.12 956.096c-282.176 0-510.912-228.736-510.912-510.944 0-282.144 228.736-510.848 510.912-510.848 282.144 0 510.88 228.736 510.88 510.848 0 282.176-228.736 510.944-510.88 510.944zM726.144 493.824c-60.928-154.368-207.168-438.912-207.168-438.912-1.92-3.904-4.288-5.792-6.72-5.792s-4.832 1.92-6.656 5.824c0 0-143.648 285.92-203.232 440.832 0 0-14.944 45.248-14.784 78.528 0.576 125.376 102.688 226.624 228.096 226.048 125.376-0.576 226.592-102.752 226.016-228.128-0.128-33.28-15.552-78.4-15.552-78.4zM515.104 676.928c-57.248 0.256-103.84-45.952-104.064-103.2-0.256-57.216 45.888-103.872 103.136-104.128s103.84 45.92 104.096 103.168c0.224 57.248-45.952 103.872-103.168 104.128z" />
<glyph unicode="&#xe616;" glyph-name="twitter" d="M983.040 740.192c-34.72-15.424-71.936-25.76-111.040-30.464 39.936 23.904 70.592 61.792 84.992 106.912-37.312-22.112-78.688-38.24-122.688-46.912-35.264 37.568-85.504 61.024-141.12 61.024-106.752 0-193.28-86.528-193.28-193.216 0-15.168 1.696-29.888 5.024-44.032-160.608 8.032-303.040 84.992-398.336 201.92-16.704-28.512-26.272-61.76-26.272-97.184 0-67.072 34.144-126.208 86.016-160.864-31.68 1.024-61.504 9.664-87.552 24.16 0-0.832 0-1.6 0-2.4 0-93.632 66.656-171.712 155.040-189.536-16.192-4.416-33.28-6.752-50.944-6.752-12.448 0-24.512 1.184-36.352 3.424 24.576-76.8 96-132.672 180.544-134.208-66.144-51.872-149.44-82.752-240.032-82.752-15.616 0-30.976 0.928-46.080 2.72 85.504-54.848 187.072-86.848 296.288-86.848 355.488 0 549.888 294.496 549.888 549.952 0 8.352-0.16 16.704-0.576 24.992 37.792 27.232 70.496 61.28 96.448 100.032z" />
<glyph unicode="&#xe617;" glyph-name="work" d="M513.12 960c-282.176 0-510.912-228.736-510.912-510.944 0-282.144 228.736-510.88 510.912-510.88 282.144 0 510.88 228.736 510.88 510.88 0 282.176-228.736 510.944-510.88 510.944zM788.48 35.168l-273.952 196.48-272.512-197.408-0.352-1.056-1.152-0.032 1.504 1.088 103.584 313.248-276.8 192.704h341.664l104.896 327.68h1.152l104.192-327.68h336.704l-272.736-191.264 103.776-313.728z" />
<glyph unicode="&#xe618;" glyph-name="query-start" d="M992.262 88.604l-242.552 206.294c-25.074 22.566-51.89 32.926-73.552 31.926 57.256 67.068 91.842 154.078 91.842 249.176 0 212.078-171.922 384-384 384-212.076 0-384-171.922-384-384s171.922-384 384-384c95.098 0 182.108 34.586 249.176 91.844-1-21.662 9.36-48.478 31.926-73.552l206.294-242.552c35.322-39.246 93.022-42.554 128.22-7.356s31.892 92.898-7.354 128.22zM384 320c-141.384 0-256 114.616-256 256s114.616 256 256 256 256-114.616 256-256-114.614-256-256-256z" />
<glyph unicode="&#xe619;" glyph-name="query-end" d="M992.262 88.604l-242.552 206.294c-25.074 22.566-51.89 32.926-73.552 31.926 57.256 67.068 91.842 154.078 91.842 249.176 0 212.078-171.922 384-384 384-212.076 0-384-171.922-384-384s171.922-384 384-384c95.098 0 182.108 34.586 249.176 91.844-1-21.662 9.36-48.478 31.926-73.552l206.294-242.552c35.322-39.246 93.022-42.554 128.22-7.356s31.892 92.898-7.354 128.22zM384 320c-141.384 0-256 114.616-256 256s114.616 256 256 256 256-114.616 256-256-114.614-256-256-256zM448 768h-128v-128h-128v-128h128v-128h128v128h128v128h-128z" />
<glyph unicode="&#xe620;" glyph-name="query-minus" d="M992.262 88.604l-242.552 206.294c-25.074 22.566-51.89 32.926-73.552 31.926 57.256 67.068 91.842 154.078 91.842 249.176 0 212.078-171.922 384-384 384-212.076 0-384-171.922-384-384s171.922-384 384-384c95.098 0 182.108 34.586 249.176 91.844-1-21.662 9.36-48.478 31.926-73.552l206.294-242.552c35.322-39.246 93.022-42.554 128.22-7.356s31.892 92.898-7.354 128.22zM384 320c-141.384 0-256 114.616-256 256s114.616 256 256 256 256-114.616 256-256-114.614-256-256-256zM192 640h384v-128h-384z" />
<glyph unicode="&#xe621;" glyph-name="graph-view" d="M229.597 626.574c92.068 0 166.996 74.911 166.996 166.983 0 92.080-74.921 166.993-166.993 166.993-92.082 0-166.993-74.911-166.993-166.993 0-92.068 74.911-166.983 166.993-166.983zM229.597 914.472c66.655 0 120.91-54.239 120.91-120.925 0-66.655-54.239-120.91-120.913-120.91-66.678 0-120.91 54.239-120.91 120.91s54.239 120.925 120.91 120.925zM832.806 357.71c-79.011 0-143.298-64.287-143.298-143.31 0-79.011 64.287-143.285 143.298-143.285s143.31 64.275 143.31 143.285c0 79.024-64.294 143.314-143.314 143.314zM832.806 117.169c-53.609 0-97.227 43.615-97.227 97.212 0 53.622 43.615 97.24 97.227 97.24s97.227-43.615 97.227-97.24c0-53.589-43.615-97.212-97.227-97.212zM668.296 723.896c42.609 0 77.279 34.67 77.279 77.292 0 42.609-34.67 77.28-77.279 77.28s-77.279-34.67-77.279-77.28c0-42.623 34.656-77.292 77.279-77.292zM668.296 832.392c17.208 0 31.209-13.985 31.209-31.2 0-17.223-14.001-31.206-31.209-31.206s-31.209 13.985-31.209 31.209c0 17.208 14.001 31.2 31.209 31.2zM264.711 388.904c0 42.609-34.67 77.272-77.28 77.272s-77.28-34.656-77.28-77.272c0-42.609 34.67-77.279 77.28-77.279s77.28 34.67 77.28 77.279zM156.22 388.904c0 17.195 14.001 31.209 31.209 31.209s31.209-14.013 31.209-31.209c0-17.208-14.001-31.209-31.209-31.209s-31.209 14.001-31.209 31.209zM229.597 91.177c-42.609 0-77.292-34.67-77.292-77.279 0-42.623 34.683-77.292 77.292-77.292s77.28 34.67 77.28 77.292c0 42.609-34.67 77.279-77.28 77.279zM229.597-17.314c-17.208 0-31.209 13.989-31.209 31.209 0 17.208 14.001 31.2 31.209 31.2s31.209-13.989 31.209-31.2c0-17.221-14.001-31.209-31.209-31.209zM711.328 319.973c8.133 9.804 6.752 24.31-3.047 32.418l-69.975 57.947c6.815 13.856 10.746 29.385 10.746 45.83 0 37.283-19.714 69.977-49.191 88.452l47.97 142.047c4.078 12.041-2.399 25.12-14.46 29.203-12.073 4.064-25.132-2.399-29.19-14.464l-47.802-141.541c-3.849 0.435-7.757 0.703-11.741 0.703-19.653 0-38.012-5.566-53.728-15.058l-87.766 107.673c-8.047 9.862-22.56 11.352-32.41 3.316-9.862-8.047-11.342-22.56-3.316-32.418l90.077-110.54c-9.969-15.088-16.032-32.905-17.002-52.073l-144.194-31.803c-12.429-2.747-20.271-15.044-17.536-27.471 2.385-10.758 11.908-18.069 22.489-18.069 1.645 0 3.316 0.167 4.984 0.545l142.062 31.328c6.34-15.164 16.193-28.477 28.502-39.027l-193.885-255.603c-7.699-10.144-5.716-24.592 4.446-32.288 4.149-3.148 9.055-4.685 13.907-4.685 6.954 0 13.846 3.136 18.371 9.116l198.555 261.763c8.474-2.212 17.31-3.522 26.458-3.522 24.48 0 46.967 8.522 64.797 22.682l69.472-57.53c4.299-3.57 9.504-5.284 14.681-5.284 6.624 0.012 13.192 2.854 17.741 8.359zM544.638 397.855c-32.159 0-58.323 26.151-58.323 58.323s26.164 58.335 58.323 58.335c32.159 0 58.335-26.161 58.335-58.335s-26.176-58.323-58.335-58.323z" />
<glyph unicode="&#xe622;" glyph-name="embed" horiz-adv-x="1312" d="M858.107 212.213l101.054-101.054 336.846 336.846-336.846 336.846-101.054-101.054 235.792-235.792zM453.893 683.798l-101.054 101.054-336.846-336.846 336.846-336.846 101.054 101.054-235.792 235.792zM720.525 828.515l73.125-19.941-202.094-741.088-73.125 19.941 202.094 741.088z" />
</font>
</defs>
</svg>
